<?xml version="1.0" encoding="UTF-8"?>
<!DOCTYPE svg PUBLIC "-//W3C//DTD SVG 1.1//EN" "http://www.w3.org/Graphics/SVG/1.1/DTD/svg11.dtd">
<svg xmlns="http://www.w3.org/2000/svg" version="1.1" width="656px" height="404px" viewBox="0 0 656 404" style="shape-rendering:geometricPrecision; text-rendering:geometricPrecision; image-rendering:optimizeQuality; fill-rule:evenodd; clip-rule:evenodd" xmlns:xlink="http://www.w3.org/1999/xlink">
<g><path style="opacity:1" fill="#fefefe" d="M -0.5,-0.5 C 218.167,-0.5 436.833,-0.5 655.5,-0.5C 655.5,134.167 655.5,268.833 655.5,403.5C 436.833,403.5 218.167,403.5 -0.5,403.5C -0.5,268.833 -0.5,134.167 -0.5,-0.5 Z"/></g>
<g><path style="opacity:1" fill="#ecf7fd" d="M 29.5,1.5 C 227.834,1.33333 426.167,1.5 624.5,2C 635.667,5.16667 642.833,12.3333 646,23.5C 646.667,142.167 646.667,260.833 646,379.5C 642.833,390.667 635.667,397.833 624.5,401C 426.167,401.667 227.833,401.667 29.5,401C 16.6944,397.194 9.19444,388.694 7,375.5C 6.33333,259.5 6.33333,143.5 7,27.5C 9.34777,14.3223 16.8478,5.65563 29.5,1.5 Z"/></g>
<g><path style="opacity:1" fill="#acdbfb" d="M 297.5,96.5 C 294.794,96.4249 292.127,96.0916 289.5,95.5C 285.837,87.192 282.503,78.8587 279.5,70.5C 277.028,63.7487 274.361,57.082 271.5,50.5C 273.484,49.8443 275.484,49.1776 277.5,48.5C 279.029,48.5288 280.196,49.1955 281,50.5C 287.171,65.6836 293.338,80.8503 299.5,96C 298.906,96.4643 298.239,96.631 297.5,96.5 Z"/></g>
<g><path style="opacity:1" fill="#d6edfd" d="M 271.5,50.5 C 274.361,57.082 277.028,63.7487 279.5,70.5C 279.64,72.1238 278.973,73.2904 277.5,74C 224.598,92.94 171.931,112.773 119.5,133.5C 115.997,126.478 112.997,119.145 110.5,111.5C 110.833,110.833 111.167,110.167 111.5,109.5C 121.37,105.433 131.37,101.766 141.5,98.5C 144.426,102.098 145.592,106.098 145,110.5C 150.566,113.613 152.899,111.946 152,105.5C 149.444,102.907 147.611,99.9067 146.5,96.5C 174.216,86.3716 201.882,76.0383 229.5,65.5C 230.298,65.0431 230.631,64.3764 230.5,63.5C 232.337,67.5332 233.504,71.8665 234,76.5C 237.925,80.7267 241.091,80.2267 243.5,75C 240.261,71.3559 237.927,67.1893 236.5,62.5C 248.262,58.7862 259.928,54.7862 271.5,50.5 Z"/></g>
<g><path style="opacity:1" fill="#bfe4fc" d="M 236.5,62.5 C 237.927,67.1893 240.261,71.3559 243.5,75C 241.091,80.2267 237.925,80.7267 234,76.5C 233.504,71.8665 232.337,67.5332 230.5,63.5C 228.977,60.3703 228.311,57.037 228.5,53.5C 230.144,53.2865 231.644,53.6198 233,54.5C 234.456,57.0756 235.623,59.7423 236.5,62.5 Z"/></g>
<g><path style="opacity:1" fill="#d7eefd" d="M 569.5,104.5 C 551.549,93.5188 533.882,82.0188 516.5,70C 511.054,67.3821 506.554,68.5488 503,73.5C 487.727,97.77 472.06,121.77 456,145.5C 456.894,140.804 458.228,136.137 460,131.5C 464.287,122.674 468.12,113.674 471.5,104.5C 471.152,101.819 469.652,100.153 467,99.5C 466.333,100.167 465.667,100.833 465,101.5C 457.737,119.681 450.237,137.681 442.5,155.5C 439.167,153.833 435.833,152.167 432.5,150.5C 438.349,135.298 444.349,120.132 450.5,105C 449.804,103.107 448.97,101.274 448,99.5C 430.565,91.6162 412.899,84.2828 395,77.5C 392.077,77.7952 389.743,79.1285 388,81.5C 387.235,84.1959 386.068,86.6959 384.5,89C 385.056,89.3826 385.389,89.8826 385.5,90.5C 379.059,102.289 373.726,114.789 369.5,128C 369.432,130.034 370.266,131.534 372,132.5C 377.569,134.702 383.069,137.035 388.5,139.5C 394.398,142.132 400.398,144.132 406.5,145.5C 395.267,144.547 384.601,146.547 374.5,151.5C 368.276,141.606 361.276,132.273 353.5,123.5C 356.342,118.145 360.175,113.478 365,109.5C 371.371,93.9274 377.871,78.4274 384.5,63C 385.729,62.2189 387.062,61.7189 388.5,61.5C 405.788,68.4729 423.122,75.4729 440.5,82.5C 468.941,55.4458 500.941,50.2792 536.5,67C 551.792,75.7679 562.792,88.2679 569.5,104.5 Z"/></g>
<g><path style="opacity:1" fill="#c1e5fc" d="M 569.5,104.5 C 577.26,110.224 585.26,115.724 593.5,121C 594.971,122.583 595.971,124.417 596.5,126.5C 573.009,164.145 549.009,201.478 524.5,238.5C 514.416,219.756 498.749,209.423 477.5,207.5C 473.804,184.768 462.138,167.434 442.5,155.5C 450.237,137.681 457.737,119.681 465,101.5C 465.667,100.833 466.333,100.167 467,99.5C 469.652,100.153 471.152,101.819 471.5,104.5C 468.12,113.674 464.287,122.674 460,131.5C 458.228,136.137 456.894,140.804 456,145.5C 472.06,121.77 487.727,97.77 503,73.5C 506.554,68.5488 511.054,67.3821 516.5,70C 533.882,82.0188 551.549,93.5188 569.5,104.5 Z"/></g>
<g><path style="opacity:1" fill="#c1e5fc" d="M 279.5,70.5 C 282.503,78.8587 285.837,87.192 289.5,95.5C 262.594,94.9117 238.927,103.245 218.5,120.5C 194.398,128.802 170.564,137.802 147,147.5C 146.675,149.553 147.009,151.553 148,153.5C 156.123,172.741 163.956,192.075 171.5,211.5C 165.527,213.819 160.193,217.153 155.5,221.5C 143.107,192.65 131.107,163.65 119.5,134.5C 119.5,134.167 119.5,133.833 119.5,133.5C 171.931,112.773 224.598,92.94 277.5,74C 278.973,73.2904 279.64,72.1238 279.5,70.5 Z"/></g>
<g><path style="opacity:1" fill="#ecf7fd" d="M 432.5,150.5 C 429.426,148.698 426.092,147.698 422.5,147.5C 422.641,141.423 420.641,136.257 416.5,132C 414.19,131.503 411.857,131.337 409.5,131.5C 405.829,121.326 401.662,111.326 397,101.5C 393.627,97.2925 389.794,93.6258 385.5,90.5C 385.389,89.8826 385.056,89.3826 384.5,89C 386.068,86.6959 387.235,84.1959 388,81.5C 389.743,79.1285 392.077,77.7952 395,77.5C 412.899,84.2828 430.565,91.6162 448,99.5C 448.97,101.274 449.804,103.107 450.5,105C 444.349,120.132 438.349,135.298 432.5,150.5 Z"/></g>
<g><path style="opacity:1" fill="#c0e4fc" d="M 146.5,96.5 C 147.611,99.9067 149.444,102.907 152,105.5C 152.899,111.946 150.566,113.613 145,110.5C 145.592,106.098 144.426,102.098 141.5,98.5C 139.628,95.0834 138.628,91.4168 138.5,87.5C 140.467,87.2606 142.301,87.5939 144,88.5C 145.136,91.0964 145.969,93.763 146.5,96.5 Z"/></g>
<g><path style="opacity:1" fill="#c1e5fc" d="M 385.5,90.5 C 389.794,93.6258 393.627,97.2925 397,101.5C 401.662,111.326 405.829,121.326 409.5,131.5C 404.345,131.965 399.345,133.131 394.5,135C 391.823,135.814 389.823,137.314 388.5,139.5C 383.069,137.035 377.569,134.702 372,132.5C 370.266,131.534 369.432,130.034 369.5,128C 373.726,114.789 379.059,102.289 385.5,90.5 Z"/></g>
<g><path style="opacity:1" fill="#fefefe" d="M 289.5,95.5 C 292.127,96.0916 294.794,96.4249 297.5,96.5C 318.741,100.12 337.407,109.12 353.5,123.5C 361.276,132.273 368.276,141.606 374.5,151.5C 384.601,146.547 395.267,144.547 406.5,145.5C 411.969,145.246 417.303,145.913 422.5,147.5C 426.092,147.698 429.426,148.698 432.5,150.5C 435.833,152.167 439.167,153.833 442.5,155.5C 462.138,167.434 473.804,184.768 477.5,207.5C 498.749,209.423 514.416,219.756 524.5,238.5C 525.038,240.117 525.371,241.784 525.5,243.5C 532.36,268.421 525.693,288.921 505.5,305C 499.411,308.252 493.078,310.918 486.5,313C 469.17,313.5 451.837,313.667 434.5,313.5C 434.667,283.498 434.5,253.498 434,223.5C 432.442,221.641 430.609,220.141 428.5,219C 394.5,218.833 360.5,218.667 326.5,218.5C 291.75,218.34 257.083,218.84 222.5,220C 221.333,221.167 220.167,222.333 219,223.5C 218.5,253.498 218.333,283.498 218.5,313.5C 206.495,313.667 194.495,313.5 182.5,313C 159.766,307.433 145.432,293.266 139.5,270.5C 136.869,251.396 142.202,235.063 155.5,221.5C 160.193,217.153 165.527,213.819 171.5,211.5C 175.91,209.471 180.576,208.305 185.5,208C 186.428,207.612 187.095,206.945 187.5,206C 184.493,172.449 194.827,143.949 218.5,120.5C 238.927,103.245 262.594,94.9117 289.5,95.5 Z"/></g>
<g><path style="opacity:1" fill="#c2e5fc" d="M 425.5,99.5 C 435.936,98.4365 440.436,103.103 439,113.5C 435.723,119.109 430.89,120.942 424.5,119C 419.725,115.345 418.225,110.512 420,104.5C 421.73,102.598 423.563,100.931 425.5,99.5 Z"/></g>
<g><path style="opacity:1" fill="#ecf7fd" d="M 525.5,107.5 C 529.514,107.334 533.514,107.501 537.5,108C 538.416,108.374 539.25,108.874 540,109.5C 537.846,113.872 535.346,118.205 532.5,122.5C 535.454,126.072 538.954,129.072 543,131.5C 542.953,133.587 541.953,135.254 540,136.5C 526.942,141.222 518.776,136.889 515.5,123.5C 516.306,116.548 519.64,111.215 525.5,107.5 Z"/></g>
<g><path style="opacity:1" fill="#abdbfb" d="M 545.5,109.5 C 547.017,109.511 548.184,110.177 549,111.5C 553.652,117.906 553.652,124.24 549,130.5C 544.844,127.682 540.677,124.848 536.5,122C 539.877,118.069 542.877,113.902 545.5,109.5 Z"/></g>
<g><path style="opacity:1" fill="#ebf7fd" d="M 189.5,116.5 C 191.5,116.5 193.5,116.5 195.5,116.5C 195.714,118.144 195.38,119.644 194.5,121C 178.588,127.125 162.588,132.958 146.5,138.5C 142.834,138.631 141.834,137.131 143.5,134C 158.971,128.236 174.305,122.403 189.5,116.5 Z"/></g>
<g><path style="opacity:1" fill="#e9f6fd" d="M 218.5,120.5 C 194.827,143.949 184.493,172.449 187.5,206C 187.095,206.945 186.428,207.612 185.5,208C 180.576,208.305 175.91,209.471 171.5,211.5C 163.956,192.075 156.123,172.741 148,153.5C 147.009,151.553 146.675,149.553 147,147.5C 170.564,137.802 194.398,128.802 218.5,120.5 Z"/></g>
<g><path style="opacity:1" fill="#aedcfb" d="M 596.5,126.5 C 599.236,128.858 600.07,131.858 599,135.5C 596.156,139.862 593.323,144.195 590.5,148.5C 572.849,175.792 555.182,203.125 537.5,230.5C 533.863,234.983 530.363,239.65 527,244.5C 526.617,243.944 526.117,243.611 525.5,243.5C 525.371,241.784 525.038,240.117 524.5,238.5C 549.009,201.478 573.009,164.145 596.5,126.5 Z"/></g>
<g><path style="opacity:1" fill="#ecf7fe" d="M 485.5,127.5 C 487.989,127.298 490.323,127.798 492.5,129C 510.303,140.637 527.97,152.471 545.5,164.5C 546.417,170.383 544.084,171.883 538.5,169C 520.407,157.204 502.573,145.038 485,132.5C 484.36,130.735 484.527,129.068 485.5,127.5 Z"/></g>
<g><path style="opacity:1" fill="#acdbfb" d="M 409.5,131.5 C 411.857,131.337 414.19,131.503 416.5,132C 420.641,136.257 422.641,141.423 422.5,147.5C 417.303,145.913 411.969,145.246 406.5,145.5C 400.398,144.132 394.398,142.132 388.5,139.5C 389.823,137.314 391.823,135.814 394.5,135C 399.345,133.131 404.345,131.965 409.5,131.5 Z"/></g>
<g><path style="opacity:1" fill="#d7eefd" d="M 119.5,134.5 C 131.107,163.65 143.107,192.65 155.5,221.5C 142.202,235.063 136.869,251.396 139.5,270.5C 114.472,270.909 89.4715,270.409 64.5,269C 41.0284,260.914 30.5284,244.414 33,219.5C 38.3102,199.022 51.4768,187.689 72.5,185.5C 77.3998,158.934 93.0665,142.934 119.5,137.5C 119.5,136.5 119.5,135.5 119.5,134.5 Z"/></g>
<g><path style="opacity:1" fill="#ecf7fd" d="M 477.5,138.5 C 479.199,138.34 480.866,138.506 482.5,139C 501.259,151.129 519.759,163.629 538,176.5C 538.117,181.191 535.951,182.524 531.5,180.5C 514.308,168.812 496.975,157.312 479.5,146C 476.534,144.09 475.867,141.59 477.5,138.5 Z"/></g>
<g><path style="opacity:1" fill="#ecf7fd" d="M 470.5,148.5 C 481.975,154.831 493.142,161.831 504,169.5C 504.564,174.936 502.397,176.436 497.5,174C 489.103,167.94 480.437,162.273 471.5,157C 467.986,154.468 467.653,151.635 470.5,148.5 Z"/></g>
<g><path style="opacity:1" fill="#d7eefd" d="M 590.5,148.5 C 590.414,149.496 590.748,150.329 591.5,151C 608.969,161.54 616.136,177.04 613,197.5C 608.598,213.569 598.431,224.069 582.5,229C 567.55,230.416 552.55,230.916 537.5,230.5C 555.182,203.125 572.849,175.792 590.5,148.5 Z"/></g>
<g><path style="opacity:1" fill="#3c73ea" d="M 434.5,313.5 C 434.667,327.837 434.5,342.171 434,356.5C 432.833,359 431,360.833 428.5,362C 438.5,362.333 448.5,362.667 458.5,363C 460.553,364.678 460.887,366.511 459.5,368.5C 370.833,367.167 282.167,367.167 193.5,368.5C 192.113,366.511 192.447,364.678 194.5,363C 203.833,362.667 213.167,362.333 222.5,362C 221.333,360.167 220.167,358.333 219,356.5C 218.5,342.171 218.333,327.837 218.5,313.5C 218.333,283.498 218.5,253.498 219,223.5C 220.167,222.333 221.333,221.167 222.5,220C 257.083,218.84 291.75,218.34 326.5,218.5C 360.5,218.667 394.5,218.833 428.5,219C 430.609,220.141 432.442,221.641 434,223.5C 434.5,253.498 434.667,283.498 434.5,313.5 Z"/></g>
<g><path style="opacity:1" fill="#ebf6fd" d="M 228.5,225.5 C 294.25,225.007 359.916,225.507 425.5,227C 426.126,227.75 426.626,228.584 427,229.5C 427.667,270.5 427.667,311.5 427,352.5C 426.167,353.333 425.333,354.167 424.5,355C 359.167,355.667 293.833,355.667 228.5,355C 227.667,354.167 226.833,353.333 226,352.5C 225.333,311.5 225.333,270.5 226,229.5C 226.662,228.016 227.496,226.683 228.5,225.5 Z"/></g>
<g><path style="opacity:1" fill="#b1ddfb" d="M 253.5,247.5 C 254.496,247.414 255.329,247.748 256,248.5C 256.5,276.498 256.667,304.498 256.5,332.5C 304.168,332.333 351.834,332.5 399.5,333C 400.833,334.333 400.833,335.667 399.5,337C 350.833,337.667 302.167,337.667 253.5,337C 252.17,307.167 252.17,277.333 253.5,247.5 Z"/></g>
<g><path style="opacity:1" fill="#e79136" d="M 296.5,255.5 C 300.846,255.334 305.179,255.501 309.5,256C 310,256.5 310.5,257 311,257.5C 311.667,278.5 311.667,299.5 311,320.5C 310.5,321 310,321.5 309.5,322C 304.913,322.799 300.413,322.632 296,321.5C 295.179,299.427 295.345,277.427 296.5,255.5 Z"/></g>
<g><path style="opacity:1" fill="#abdbfb" d="M 368.5,264.5 C 373.43,264.197 378.263,264.531 383,265.5C 383.825,284.407 383.659,303.24 382.5,322C 378.167,322.667 373.833,322.667 369.5,322C 369,321.5 368.5,321 368,320.5C 367.181,301.76 367.347,283.093 368.5,264.5 Z"/></g>
<g><path style="opacity:1" fill="#acdbfb" d="M 272.5,278.5 C 276.846,278.334 281.179,278.501 285.5,279C 286,279.5 286.5,280 287,280.5C 287.667,293.833 287.667,307.167 287,320.5C 286.5,321 286,321.5 285.5,322C 280.913,322.799 276.413,322.632 272,321.5C 271.185,307.092 271.352,292.759 272.5,278.5 Z"/></g>
<g><path style="opacity:1" fill="#3370ea" d="M 345.5,278.5 C 349.514,278.334 353.514,278.501 357.5,279C 358,279.5 358.5,280 359,280.5C 359.823,294.408 359.656,308.242 358.5,322C 354.167,322.667 349.833,322.667 345.5,322C 345,321.5 344.5,321 344,320.5C 343.333,307.167 343.333,293.833 344,280.5C 344.717,279.956 345.217,279.289 345.5,278.5 Z"/></g>
<g><path style="opacity:1" fill="#c1e5fc" d="M 320.5,299.5 C 325.43,299.197 330.263,299.531 335,300.5C 335.797,307.55 335.63,314.55 334.5,321.5C 329.615,322.802 324.782,322.802 320,321.5C 319.204,314.087 319.37,306.754 320.5,299.5 Z"/></g>
<g><path style="opacity:1" fill="#1f4ea5" d="M 310.5,361.5 C 321.187,361.168 331.854,361.501 342.5,362.5C 342.023,363.478 341.357,364.311 340.5,365C 331.167,365.667 321.833,365.667 312.5,365C 311.177,364.184 310.511,363.017 310.5,361.5 Z"/></g>
<g><path style="opacity:1" fill="#2e61c5" d="M 459.5,368.5 C 457.906,369.983 456.24,371.483 454.5,373C 369.167,373.667 283.833,373.667 198.5,373C 196.937,371.264 195.27,369.764 193.5,368.5C 282.167,367.167 370.833,367.167 459.5,368.5 Z"/></g>
</svg>
