<?xml version="1.0" encoding="UTF-8"?>
<!DOCTYPE svg PUBLIC "-//W3C//DTD SVG 1.1//EN" "http://www.w3.org/Graphics/SVG/1.1/DTD/svg11.dtd">
<svg xmlns="http://www.w3.org/2000/svg" version="1.1" width="710px" height="484px" viewBox="0 0 656 404" style="shape-rendering:geometricPrecision; text-rendering:geometricPrecision; image-rendering:optimizeQuality; fill-rule:evenodd; clip-rule:evenodd" xmlns:xlink="http://www.w3.org/1999/xlink">
<g><path style="opacity:1" fill="#fefefe" d="M -0.5,-0.5 C 236.167,-0.5 472.833,-0.5 709.5,-0.5C 709.5,160.833 709.5,322.167 709.5,483.5C 472.833,483.5 236.167,483.5 -0.5,483.5C -0.5,322.167 -0.5,160.833 -0.5,-0.5 Z"/></g>
<g><path style="opacity:1" fill="#306eea" d="M 575.5,167.5 C 573.24,179.182 567.907,189.349 559.5,198C 555.933,200.017 552.099,201.184 548,201.5C 541.591,198.919 535.091,196.753 528.5,195C 523.341,197.412 518.341,200.079 513.5,203C 511.127,208.636 509.127,214.469 507.5,220.5C 504.312,225.856 499.646,229.022 493.5,230C 483.11,231.603 473.443,229.77 464.5,224.5C 462.081,222.246 460.248,219.579 459,216.5C 458.092,211.147 457.092,205.813 456,200.5C 451.5,197.333 447,194.167 442.5,191C 440.833,190.333 439.167,190.333 437.5,191C 421.321,199.16 409.488,194.993 402,178.5C 392.198,161.288 396.198,148.288 414,139.5C 414.621,132.818 414.954,126.151 415,119.5C 410.81,116.066 406.81,112.4 403,108.5C 399.967,103.894 398.967,98.8945 400,93.5C 403.849,83.5907 409.349,74.7574 416.5,67C 421.303,64.7998 426.303,64.1332 431.5,65C 436.166,67.5839 440.999,69.7505 446,71.5C 450.96,68.9394 455.793,66.2727 460.5,63.5C 461.87,63.1435 462.87,62.3102 463.5,61C 466.353,39.0522 478.686,30.7189 500.5,36C 508.469,37.966 513.969,42.7993 517,50.5C 517.465,55.6309 518.465,60.6309 520,65.5C 524.787,69.4604 529.954,72.7937 535.5,75.5C 541.544,73.3176 547.711,71.651 554,70.5C 564.378,72.2043 571.045,78.2043 574,88.5C 579.241,97.2942 579.741,106.294 575.5,115.5C 571.154,119.762 566.321,123.429 561,126.5C 560.169,133.524 560.336,140.524 561.5,147.5C 567.58,151.08 572.08,156.08 575,162.5C 575.494,164.134 575.66,165.801 575.5,167.5 Z"/></g>
<g><path style="opacity:1" fill="#ecf7fd" d="M 460.5,63.5 C 455.793,66.2727 450.96,68.9394 446,71.5C 440.999,69.7505 436.166,67.5839 431.5,65C 426.303,64.1332 421.303,64.7998 416.5,67C 409.349,74.7574 403.849,83.5907 400,93.5C 398.967,98.8945 399.967,103.894 403,108.5C 406.81,112.4 410.81,116.066 415,119.5C 414.954,126.151 414.621,132.818 414,139.5C 396.198,148.288 392.198,161.288 402,178.5C 409.488,194.993 421.321,199.16 437.5,191C 439.167,190.333 440.833,190.333 442.5,191C 447,194.167 451.5,197.333 456,200.5C 457.092,205.813 458.092,211.147 459,216.5C 460.248,219.579 462.081,222.246 464.5,224.5C 473.443,229.77 483.11,231.603 493.5,230C 499.646,229.022 504.312,225.856 507.5,220.5C 509.127,214.469 511.127,208.636 513.5,203C 518.341,200.079 523.341,197.412 528.5,195C 535.091,196.753 541.591,198.919 548,201.5C 552.099,201.184 555.933,200.017 559.5,198C 567.907,189.349 573.24,179.182 575.5,167.5C 593.194,167.175 610.861,167.675 628.5,169C 654.313,175.147 669.48,191.314 674,217.5C 675.883,250.942 660.716,272.109 628.5,281C 590.98,281.8 553.647,282.966 516.5,284.5C 516.666,278.158 516.5,271.825 516,265.5C 510.814,260.88 507.147,261.88 505,268.5C 504.501,273.155 504.334,277.821 504.5,282.5C 494.5,282.5 484.5,282.5 474.5,282.5C 475.492,279.221 475.659,275.888 475,272.5C 471.952,268.99 468.619,268.657 465,271.5C 463.096,274.923 462.263,278.59 462.5,282.5C 449.5,282.5 436.5,282.5 423.5,282.5C 427.333,277.833 429.833,272.5 431,266.5C 431.857,253.129 431.524,239.796 430,226.5C 426.167,217.333 419.667,210.833 410.5,207C 402.745,205.916 395.079,204.416 387.5,202.5C 383.215,193.429 378.549,184.596 373.5,176C 377.07,169.025 380.237,161.858 383,154.5C 383.877,147.751 383.544,141.084 382,134.5C 379.623,130.912 377.123,127.412 374.5,124C 367.167,118.667 359.833,113.333 352.5,108C 334.25,98.0196 318.75,101.186 306,117.5C 303.5,120.667 301,123.833 298.5,127C 287.769,127.814 277.102,127.314 266.5,125.5C 261.38,119.425 256.38,113.258 251.5,107C 238.957,97.7608 225.957,97.0941 212.5,105C 203.211,108.89 195.044,114.39 188,121.5C 182.858,128.716 181.192,136.716 183,145.5C 184.676,152.538 186.51,159.538 188.5,166.5C 183.939,175.732 178.939,184.732 173.5,193.5C 163.688,194.116 154.021,195.616 144.5,198C 140.722,200.112 137.222,202.612 134,205.5C 131.56,208.728 129.394,212.061 127.5,215.5C 97.8791,218.905 72.7125,209.905 52,188.5C 29.4532,157.251 28.7865,125.584 50,93.5C 64.7915,75.3532 83.9581,65.5198 107.5,64C 225.166,63.5 342.833,63.3333 460.5,63.5 Z"/></g>
<g><path style="opacity:1" fill="#0f1b4d" d="M 423.5,282.5 C 419.521,285.493 415.188,287.993 410.5,290C 402.223,291.438 393.89,292.438 385.5,293C 379.79,301.584 374.456,310.418 369.5,319.5C 370.33,322.016 371.33,324.35 372.5,326.5C 374.347,332.88 375.68,339.38 376.5,346C 376.081,358.175 370.747,367.508 360.5,374C 353.167,377.667 345.833,381.333 338.5,385C 327.222,389.265 316.889,387.598 307.5,380C 301.791,373.96 296.457,367.626 291.5,361C 280.863,359.638 270.196,359.304 259.5,360C 253.817,368.014 247.151,375.014 239.5,381C 230.286,385.102 220.953,385.435 211.5,382C 201.401,375.2 191.567,368.034 182,360.5C 176.075,352.469 173.742,343.469 175,333.5C 177.611,325.61 180.778,317.943 184.5,310.5C 180.273,301.713 175.773,293.046 171,284.5C 161.741,282.779 152.575,280.612 143.5,278C 139.666,274.998 136,271.831 132.5,268.5C 129.573,263.218 127.739,257.551 127,251.5C 126.251,239.474 126.418,227.474 127.5,215.5C 129.394,212.061 131.56,208.728 134,205.5C 137.222,202.612 140.722,200.112 144.5,198C 154.021,195.616 163.688,194.116 173.5,193.5C 178.939,184.732 183.939,175.732 188.5,166.5C 186.51,159.538 184.676,152.538 183,145.5C 181.192,136.716 182.858,128.716 188,121.5C 195.044,114.39 203.211,108.89 212.5,105C 225.957,97.0941 238.957,97.7608 251.5,107C 256.38,113.258 261.38,119.425 266.5,125.5C 277.102,127.314 287.769,127.814 298.5,127C 301,123.833 303.5,120.667 306,117.5C 318.75,101.186 334.25,98.0196 352.5,108C 359.833,113.333 367.167,118.667 374.5,124C 377.123,127.412 379.623,130.912 382,134.5C 383.544,141.084 383.877,147.751 383,154.5C 380.237,161.858 377.07,169.025 373.5,176C 378.549,184.596 383.215,193.429 387.5,202.5C 395.079,204.416 402.745,205.916 410.5,207C 419.667,210.833 426.167,217.333 430,226.5C 431.524,239.796 431.857,253.129 431,266.5C 429.833,272.5 427.333,277.833 423.5,282.5 Z"/></g>
<g><path style="opacity:1" fill="#ebf6fd" d="M 487.5,99.5 C 511.963,102.81 522.796,116.81 520,141.5C 512.73,160.56 498.897,168.393 478.5,165C 457.05,155.591 450.217,139.757 458,117.5C 464.695,106.241 474.528,100.241 487.5,99.5 Z"/></g>
<g><path style="opacity:1" fill="#fdfdfe" d="M 224.5,105.5 C 231.514,104.805 238.181,105.972 244.5,109C 251.207,116.038 257.54,123.372 263.5,131C 276.1,133.063 288.767,133.73 301.5,133C 306.792,126.04 312.458,119.373 318.5,113C 326.558,107.04 335.225,106.04 344.5,110C 352.5,115.667 360.5,121.333 368.5,127C 376.729,134.023 379.563,142.856 377,153.5C 374.106,160.955 370.939,168.288 367.5,175.5C 372.304,186.44 377.637,197.107 383.5,207.5C 392.027,209.819 400.693,211.652 409.5,213C 417.493,216.326 422.659,222.159 425,230.5C 425.667,242.5 425.667,254.5 425,266.5C 423.038,275.131 417.872,280.964 409.5,284C 399.909,285.212 390.409,286.712 381,288.5C 374.898,298.374 369.065,308.374 363.5,318.5C 365.565,325.863 367.732,333.196 370,340.5C 371.587,350.488 368.754,358.988 361.5,366C 352.833,370.667 344.167,375.333 335.5,380C 325.391,382.962 316.557,380.796 309,373.5C 304.356,367.355 299.523,361.355 294.5,355.5C 282.221,353.697 269.888,353.197 257.5,354C 251.5,360.667 245.5,367.333 239.5,374C 230.335,379.542 221.001,379.876 211.5,375C 202.095,368.932 193.262,362.098 185,354.5C 180.751,347.741 179.418,340.408 181,332.5C 184.227,325.045 187.727,317.712 191.5,310.5C 185.833,299.833 180.167,289.167 174.5,278.5C 166.129,277.216 157.796,275.716 149.5,274C 139.378,269.879 133.878,262.379 133,251.5C 132.333,241.167 132.333,230.833 133,220.5C 134.858,213.302 139.025,207.802 145.5,204C 156.019,201.361 166.686,199.528 177.5,198.5C 183.199,189.297 188.699,179.964 194,170.5C 194.003,162.499 192.336,154.833 189,147.5C 185.768,134.813 189.601,124.98 200.5,118C 208.683,113.935 216.683,109.768 224.5,105.5 Z"/></g>
<g><path style="opacity:1" fill="#d5d9dc" d="M 267.5,161.5 C 302.166,158.42 329.333,171.087 349,199.5C 369.854,239.196 364.354,274.696 332.5,306C 297.591,331.597 262.591,331.93 227.5,307C 197.603,279.911 189.77,247.411 204,209.5C 217.311,183.012 238.478,167.012 267.5,161.5 Z"/></g>
<g><path style="opacity:1" fill="#101b4d" d="M 273.5,183.5 C 299.253,182.792 318.753,193.459 332,215.5C 345.69,249.083 337.524,275.916 307.5,296C 273.089,310.194 245.922,301.694 226,270.5C 212.972,237.406 221.139,210.906 250.5,191C 257.865,187.155 265.532,184.655 273.5,183.5 Z"/></g>
<g><path style="opacity:1" fill="#ebf6fc" d="M 325.5,215.5 C 294.833,215.5 264.167,215.5 233.5,215.5C 247.21,193.661 266.877,185.494 292.5,191C 306.828,194.817 317.828,202.983 325.5,215.5 Z"/></g>
<g><path style="opacity:1" fill="#fdfefe" d="M 233.5,215.5 C 264.167,215.5 294.833,215.5 325.5,215.5C 336.815,236.115 335.815,256.115 322.5,275.5C 316.679,273.172 310.679,271.338 304.5,270C 280.502,269.5 256.502,269.333 232.5,269.5C 227.609,261.441 225.276,252.608 225.5,243C 225.229,236.995 226.062,231.162 228,225.5C 229.086,221.654 230.919,218.32 233.5,215.5 Z"/></g>
<g><path style="opacity:1" fill="#acb5be" d="M 516.5,284.5 C 514.615,307.322 507.448,328.322 495,347.5C 492.388,350.576 489.221,351.243 485.5,349.5C 484.443,347.997 483.776,346.33 483.5,344.5C 495.671,325.655 502.671,304.988 504.5,282.5C 504.334,277.821 504.501,273.155 505,268.5C 507.147,261.88 510.814,260.88 516,265.5C 516.5,271.825 516.666,278.158 516.5,284.5 Z"/></g>
<g><path style="opacity:1" fill="#ecf7fd" d="M 132.5,268.5 C 136,271.831 139.666,274.998 143.5,278C 152.575,280.612 161.741,282.779 171,284.5C 175.773,293.046 180.273,301.713 184.5,310.5C 180.778,317.943 177.611,325.61 175,333.5C 173.742,343.469 176.075,352.469 182,360.5C 191.567,368.034 201.401,375.2 211.5,382C 220.953,385.435 230.286,385.102 239.5,381C 247.151,375.014 253.817,368.014 259.5,360C 270.196,359.304 280.863,359.638 291.5,361C 296.457,367.626 301.791,373.96 307.5,380C 316.889,387.598 327.222,389.265 338.5,385C 345.833,381.333 353.167,377.667 360.5,374C 370.747,367.508 376.081,358.175 376.5,346C 375.68,339.38 374.347,332.88 372.5,326.5C 388.666,328.663 401.499,336.33 411,349.5C 413.875,354.595 416.708,359.595 419.5,364.5C 416.871,367.631 414.038,370.631 411,373.5C 410.368,382.034 413.868,384.368 421.5,380.5C 420.34,412.161 404.34,431.661 373.5,439C 303.5,439.667 233.5,439.667 163.5,439C 134.638,431.641 118.972,413.141 116.5,383.5C 85.1026,386.893 62.6026,374.56 49,346.5C 40.317,318.217 47.817,295.384 71.5,278C 77.7359,274.214 84.4026,271.547 91.5,270C 105.339,269.831 119.006,269.331 132.5,268.5 Z"/></g>
<g><path style="opacity:1" fill="#eaf5fc" d="M 232.5,269.5 C 256.502,269.333 280.502,269.5 304.5,270C 310.679,271.338 316.679,273.172 322.5,275.5C 306.754,294.47 286.754,300.97 262.5,295C 248.928,290.587 238.928,282.087 232.5,269.5 Z"/></g>
<g><path style="opacity:1" fill="#acb5be" d="M 474.5,282.5 C 470.552,311.29 459.385,336.956 441,359.5C 434.584,366.743 428.084,373.743 421.5,380.5C 413.868,384.368 410.368,382.034 411,373.5C 414.038,370.631 416.871,367.631 419.5,364.5C 443.805,342.562 458.139,315.229 462.5,282.5C 462.263,278.59 463.096,274.923 465,271.5C 468.619,268.657 471.952,268.99 475,272.5C 475.659,275.888 475.492,279.221 474.5,282.5 Z"/></g>
<g><path style="opacity:1" fill="#fdfefe" d="M 423.5,282.5 C 436.5,282.5 449.5,282.5 462.5,282.5C 458.139,315.229 443.805,342.562 419.5,364.5C 416.708,359.595 413.875,354.595 411,349.5C 401.499,336.33 388.666,328.663 372.5,326.5C 371.33,324.35 370.33,322.016 369.5,319.5C 374.456,310.418 379.79,301.584 385.5,293C 393.89,292.438 402.223,291.438 410.5,290C 415.188,287.993 419.521,285.493 423.5,282.5 Z"/></g>
</svg>
